<?xml version="1.0" encoding="utf-8"?>
<!-- Generator: Adobe Illustrator 16.0.0, SVG Export Plug-In . SVG Version: 6.00 Build 0)  -->
<!DOCTYPE svg PUBLIC "-//W3C//DTD SVG 1.1//EN" "http://www.w3.org/Graphics/SVG/1.1/DTD/svg11.dtd">
<svg version="1.1" xmlns="http://www.w3.org/2000/svg" xmlns:xlink="http://www.w3.org/1999/xlink" x="0px" y="0px" width="595px"
	 height="842px" viewBox="0 0 595 842" enable-background="new 0 0 595 842" xml:space="preserve">
<g id="Guides_For_Artboard">
</g>
<g id="_x30_">
	<path fill="none" stroke="#433092" stroke-width="0.25" stroke-linejoin="bevel" stroke-miterlimit="22.9256" d="M396.305,283.278
		c-3.76-5.37-7.867-10.487-12.295-15.319"/>
	<path fill="none" stroke="#433092" stroke-width="0.25" stroke-linejoin="bevel" stroke-miterlimit="22.9256" d="M417.157,294.327
		c-3.251-6.229-6.902-12.24-10.933-17.995"/>
	
		<line fill="none" stroke="#433092" stroke-width="0.25" stroke-linejoin="bevel" stroke-miterlimit="22.9256" x1="417.157" y1="294.327" x2="375.918" y2="294.327"/>
	<path fill="none" stroke="#433092" stroke-width="0.25" stroke-linejoin="bevel" stroke-miterlimit="22.9256" d="M375.918,294.327
		c-17.144-23.432-41.79-40.291-69.842-47.776"/>
	
		<line fill="none" stroke="#433092" stroke-width="0.25" stroke-linejoin="bevel" stroke-miterlimit="22.9256" x1="170.67" y1="294.327" x2="129.431" y2="294.327"/>
	
		<line fill="none" stroke="#433092" stroke-width="0.25" stroke-linejoin="bevel" stroke-miterlimit="22.9256" x1="427.581" y1="355.912" x2="434.955" y2="355.267"/>
	
		<line fill="none" stroke="#433092" stroke-width="0.25" stroke-linejoin="bevel" stroke-miterlimit="22.9256" x1="396.305" y1="283.278" x2="406.225" y2="276.332"/>
	
		<line fill="none" stroke="#433092" stroke-width="0.25" stroke-linejoin="bevel" stroke-miterlimit="22.9256" x1="384.01" y1="267.958" x2="392.938" y2="259.777"/>
	
		<line fill="none" stroke="#433092" stroke-width="0.25" stroke-linejoin="bevel" stroke-miterlimit="22.9256" x1="369.82" y1="254.375" x2="377.604" y2="245.098"/>
	
		<line fill="none" stroke="#433092" stroke-width="0.25" stroke-linejoin="bevel" stroke-miterlimit="22.9256" x1="353.979" y1="242.76" x2="360.486" y2="232.546"/>
	
		<line fill="none" stroke="#433092" stroke-width="0.25" stroke-linejoin="bevel" stroke-miterlimit="22.9256" x1="336.758" y1="233.312" x2="341.876" y2="222.336"/>
	
		<line fill="none" stroke="#433092" stroke-width="0.25" stroke-linejoin="bevel" stroke-miterlimit="22.9256" x1="318.45" y1="226.193" x2="322.092" y2="214.643"/>
	
		<line fill="none" stroke="#433092" stroke-width="0.25" stroke-linejoin="bevel" stroke-miterlimit="22.9256" x1="299.37" y1="221.524" x2="301.474" y2="209.597"/>
	
		<line fill="none" stroke="#433092" stroke-width="0.25" stroke-linejoin="bevel" stroke-miterlimit="22.9256" x1="388.329" y1="465.937" x2="397.606" y2="473.721"/>
	
		<line fill="none" stroke="#433092" stroke-width="0.25" stroke-linejoin="bevel" stroke-miterlimit="22.9256" x1="399.944" y1="450.096" x2="410.158" y2="456.603"/>
	
		<line fill="none" stroke="#433092" stroke-width="0.25" stroke-linejoin="bevel" stroke-miterlimit="22.9256" x1="409.393" y1="432.874" x2="420.368" y2="437.992"/>
	
		<line fill="none" stroke="#433092" stroke-width="0.25" stroke-linejoin="bevel" stroke-miterlimit="22.9256" x1="416.512" y1="414.566" x2="428.062" y2="418.209"/>
	
		<line fill="none" stroke="#433092" stroke-width="0.25" stroke-linejoin="bevel" stroke-miterlimit="22.9256" x1="421.181" y1="395.486" x2="433.107" y2="397.59"/>
	
		<line fill="none" stroke="#433092" stroke-width="0.25" stroke-linejoin="bevel" stroke-miterlimit="22.9256" x1="423.319" y1="375.961" x2="435.418" y2="376.489"/>
	
		<line fill="none" stroke="#433092" stroke-width="0.25" stroke-linejoin="bevel" stroke-miterlimit="22.9256" x1="299.37" y1="221.524" x2="306.076" y2="246.551"/>
	
		<line fill="none" stroke="#433092" stroke-width="0.25" stroke-linejoin="bevel" stroke-miterlimit="22.9256" x1="247.218" y1="221.524" x2="240.512" y2="246.551"/>
	
		<line fill="none" stroke="#433092" stroke-width="0.25" stroke-linejoin="bevel" stroke-miterlimit="22.9256" x1="150.284" y1="283.278" x2="140.364" y2="276.332"/>
	
		<line fill="none" stroke="#433092" stroke-width="0.25" stroke-linejoin="bevel" stroke-miterlimit="22.9256" x1="162.579" y1="267.958" x2="153.65" y2="259.777"/>
	
		<line fill="none" stroke="#433092" stroke-width="0.25" stroke-linejoin="bevel" stroke-miterlimit="22.9256" x1="176.768" y1="254.375" x2="168.983" y2="245.098"/>
	
		<line fill="none" stroke="#433092" stroke-width="0.25" stroke-linejoin="bevel" stroke-miterlimit="22.9256" x1="192.609" y1="242.76" x2="186.102" y2="232.546"/>
	
		<line fill="none" stroke="#433092" stroke-width="0.25" stroke-linejoin="bevel" stroke-miterlimit="22.9256" x1="209.83" y1="233.312" x2="204.712" y2="222.336"/>
	
		<line fill="none" stroke="#433092" stroke-width="0.25" stroke-linejoin="bevel" stroke-miterlimit="22.9256" x1="228.138" y1="226.193" x2="224.496" y2="214.643"/>
	
		<line fill="none" stroke="#433092" stroke-width="0.25" stroke-linejoin="bevel" stroke-miterlimit="22.9256" x1="247.218" y1="221.524" x2="245.115" y2="209.597"/>
	
		<line fill="none" stroke="#433092" stroke-width="0.25" stroke-linejoin="bevel" stroke-miterlimit="22.9256" x1="260.732" y1="207.132" x2="221.802" y2="320.193"/>
	<path fill="none" stroke="#433092" stroke-width="0.25" stroke-linejoin="bevel" stroke-miterlimit="22.9256" d="M282.982,175.888
		c-6.455-0.323-12.922-0.323-19.376,0"/>
	
		<line fill="none" stroke="#433092" stroke-width="0.25" stroke-linejoin="bevel" stroke-miterlimit="22.9256" x1="263.606" y1="175.888" x2="263.606" y2="202.569"/>
	
		<line fill="none" stroke="#433092" stroke-width="0.25" stroke-linejoin="bevel" stroke-miterlimit="22.9256" x1="282.982" y1="175.888" x2="282.982" y2="202.569"/>
	<path fill="none" stroke="#433092" stroke-width="0.25" stroke-linejoin="bevel" stroke-miterlimit="22.9256" d="M245.115,209.597
		c-6.976,1.23-13.863,2.916-20.619,5.046"/>
	<path fill="none" stroke="#433092" stroke-width="0.25" stroke-linejoin="bevel" stroke-miterlimit="22.9256" d="M228.138,226.193
		c-6.251,1.971-12.367,4.349-18.308,7.119"/>
	
		<line fill="none" stroke="#433092" stroke-width="0.25" stroke-linejoin="bevel" stroke-miterlimit="22.9256" x1="260.732" y1="207.132" x2="266.24" y2="207.132"/>
	
		<line fill="none" stroke="#433092" stroke-width="0.25" stroke-linejoin="bevel" stroke-miterlimit="22.9256" x1="263.606" y1="202.569" x2="266.24" y2="207.132"/>
	
		<line fill="none" stroke="#433092" stroke-width="0.25" stroke-linejoin="bevel" stroke-miterlimit="22.9256" x1="282.982" y1="202.569" x2="280.348" y2="207.132"/>
	
		<line fill="none" stroke="#433092" stroke-width="0.25" stroke-linejoin="bevel" stroke-miterlimit="22.9256" x1="263.606" y1="242.622" x2="263.606" y2="270.58"/>
	
		<line fill="none" stroke="#433092" stroke-width="0.25" stroke-linejoin="bevel" stroke-miterlimit="22.9256" x1="282.982" y1="242.622" x2="282.982" y2="270.58"/>
	
		<line fill="none" stroke="#433092" stroke-width="0.25" stroke-linejoin="bevel" stroke-miterlimit="22.9256" x1="282.982" y1="242.622" x2="282.982" y2="270.58"/>
	
		<line fill="none" stroke="#433092" stroke-width="0.25" stroke-linejoin="bevel" stroke-miterlimit="22.9256" x1="263.606" y1="270.58" x2="282.982" y2="270.58"/>
	
		<line fill="none" stroke="#433092" stroke-width="0.25" stroke-linejoin="bevel" stroke-miterlimit="22.9256" x1="263.606" y1="242.622" x2="234.864" y2="326.092"/>
	<path fill="none" stroke="#433092" stroke-width="0.25" stroke-linejoin="bevel" stroke-miterlimit="22.9256" d="M154.878,529.604
		c1.199,0.821,2.407,1.63,3.624,2.424"/>
	<path fill="none" stroke="#433092" stroke-width="0.25" stroke-linejoin="bevel" stroke-miterlimit="22.9256" d="M240.512,246.551
		c-28.052,7.485-52.698,24.344-69.842,47.776"/>
	
		<line fill="none" stroke="#433092" stroke-width="0.25" stroke-linejoin="bevel" stroke-miterlimit="22.9256" x1="456.541" y1="306.437" x2="353.919" y2="306.437"/>
	
		<line fill="none" stroke="#433092" stroke-width="0.25" stroke-linejoin="bevel" stroke-miterlimit="22.9256" x1="191.401" y1="473.877" x2="185.438" y2="491.196"/>
	<path fill="none" stroke="#433092" stroke-width="0.25" stroke-linejoin="bevel" stroke-miterlimit="22.9256" d="M222.8,510.835
		c6.47,2.31,13.09,4.173,19.815,5.576"/>
	<path fill="none" stroke="#433092" stroke-width="0.25" stroke-linejoin="bevel" stroke-miterlimit="22.9256" d="M198.34,513.342
		c6.584,3.429,13.396,6.401,20.388,8.897"/>
	<path fill="none" stroke="#433092" stroke-width="0.25" stroke-linejoin="bevel" stroke-miterlimit="22.9256" d="M193.329,468.278
		c46.637,37.721,113.293,37.721,159.93,0"/>
	
		<line fill="none" stroke="#433092" stroke-width="0.25" stroke-linejoin="bevel" stroke-miterlimit="22.9256" x1="378.042" y1="453.302" x2="386.478" y2="477.799"/>
	
		<line fill="none" stroke="#433092" stroke-width="0.25" stroke-linejoin="bevel" stroke-miterlimit="22.9256" x1="355.187" y1="473.877" x2="361.15" y2="491.196"/>
	
		<line fill="none" stroke="#433092" stroke-width="0.25" stroke-linejoin="bevel" stroke-miterlimit="22.9256" x1="220.871" y1="366.731" x2="206.132" y2="365.701"/>
	
		<line fill="none" stroke="#433092" stroke-width="0.25" stroke-linejoin="bevel" stroke-miterlimit="22.9256" x1="442.008" y1="320.969" x2="354.358" y2="320.969"/>
	
		<line fill="none" stroke="#433092" stroke-width="0.25" stroke-linejoin="bevel" stroke-miterlimit="22.9256" x1="445.122" y1="324.603" x2="357.992" y2="324.603"/>
	
		<line fill="none" stroke="#433092" stroke-width="0.25" stroke-linejoin="bevel" stroke-miterlimit="22.9256" x1="436.645" y1="333.08" x2="346.95" y2="333.08"/>
	
		<line fill="none" stroke="#433092" stroke-width="0.25" stroke-linejoin="bevel" stroke-miterlimit="22.9256" x1="428.772" y1="336.713" x2="345.236" y2="336.713"/>
	
		<line fill="none" stroke="#433092" stroke-width="0.25" stroke-linejoin="bevel" stroke-miterlimit="22.9256" x1="420.295" y1="345.19" x2="340.307" y2="345.19"/>
	
		<line fill="none" stroke="#433092" stroke-width="0.25" stroke-linejoin="bevel" stroke-miterlimit="22.9256" x1="413.029" y1="348.823" x2="337.189" y2="348.823"/>
	
		<line fill="none" stroke="#433092" stroke-width="0.25" stroke-linejoin="bevel" stroke-miterlimit="22.9256" x1="404.552" y1="357.3" x2="325.461" y2="357.3"/>
	<path fill="none" stroke="#433092" stroke-width="0.25" stroke-linejoin="bevel" stroke-miterlimit="22.9256" d="M90.047,306.437
		c0,3.855,1.531,7.551,4.257,10.276c2.725,2.726,6.421,4.257,10.276,4.257"/>
	<path fill="none" stroke="#433092" stroke-width="0.25" stroke-linejoin="bevel" stroke-miterlimit="22.9256" d="M101.466,324.603
		c0,2.248,0.893,4.404,2.483,5.994c1.59,1.59,3.746,2.483,5.994,2.483"/>
	<path fill="none" stroke="#433092" stroke-width="0.25" stroke-linejoin="bevel" stroke-miterlimit="22.9256" d="M117.815,336.713
		c0,2.248,0.894,4.404,2.483,5.994c1.59,1.59,3.746,2.483,5.994,2.483"/>
	<path fill="none" stroke="#433092" stroke-width="0.25" stroke-linejoin="bevel" stroke-miterlimit="22.9256" d="M133.559,348.823
		c0,2.249,0.894,4.405,2.483,5.995c1.59,1.59,3.746,2.482,5.995,2.482"/>
	<path fill="none" stroke="#433092" stroke-width="0.25" stroke-linejoin="bevel" stroke-miterlimit="22.9256" d="M140.364,276.332
		c-4.03,5.755-7.682,11.766-10.933,17.995"/>
	<path fill="none" stroke="#433092" stroke-width="0.25" stroke-linejoin="bevel" stroke-miterlimit="22.9256" d="M162.579,267.958
		c-4.428,4.833-8.535,9.95-12.295,15.319"/>
	<path fill="none" stroke="#433092" stroke-width="0.25" stroke-linejoin="bevel" stroke-miterlimit="22.9256" d="M168.983,245.098
		c-5.426,4.553-10.548,9.457-15.333,14.679"/>
	<path fill="none" stroke="#433092" stroke-width="0.25" stroke-linejoin="bevel" stroke-miterlimit="22.9256" d="M192.609,242.76
		c-5.528,3.521-10.82,7.402-15.841,11.615"/>
	<path fill="none" stroke="#433092" stroke-width="0.25" stroke-linejoin="bevel" stroke-miterlimit="22.9256" d="M204.712,222.336
		c-6.42,2.994-12.637,6.404-18.61,10.21"/>
	<path fill="none" stroke="#433092" stroke-width="0.25" stroke-linejoin="bevel" stroke-miterlimit="22.9256" d="M442.008,320.969
		c8.026,0,14.532-6.506,14.533-14.533"/>
	<path fill="none" stroke="#433092" stroke-width="0.25" stroke-linejoin="bevel" stroke-miterlimit="22.9256" d="M436.645,333.08
		c4.682,0,8.478-3.795,8.478-8.477"/>
	<path fill="none" stroke="#433092" stroke-width="0.25" stroke-linejoin="bevel" stroke-miterlimit="22.9256" d="M420.295,345.19
		c4.683,0,8.478-3.795,8.478-8.477"/>
	<path fill="none" stroke="#433092" stroke-width="0.25" stroke-linejoin="bevel" stroke-miterlimit="22.9256" d="M404.552,357.3
		c4.683,0,8.478-3.795,8.478-8.477"/>
	
		<line fill="none" stroke="#433092" stroke-width="0.25" stroke-linejoin="bevel" stroke-miterlimit="22.9256" x1="323.795" y1="510.832" x2="327.867" y2="522.237"/>
	
		<line fill="none" stroke="#433092" stroke-width="0.25" stroke-linejoin="bevel" stroke-miterlimit="22.9256" x1="303.98" y1="516.41" x2="306.455" y2="528.265"/>
	
		<line fill="none" stroke="#433092" stroke-width="0.25" stroke-linejoin="bevel" stroke-miterlimit="22.9256" x1="283.59" y1="519.226" x2="284.42" y2="531.307"/>
	
		<line fill="none" stroke="#433092" stroke-width="0.25" stroke-linejoin="bevel" stroke-miterlimit="22.9256" x1="263.005" y1="519.226" x2="262.176" y2="531.308"/>
	
		<line fill="none" stroke="#433092" stroke-width="0.25" stroke-linejoin="bevel" stroke-miterlimit="22.9256" x1="242.615" y1="516.411" x2="240.14" y2="528.267"/>
	
		<line fill="none" stroke="#433092" stroke-width="0.25" stroke-linejoin="bevel" stroke-miterlimit="22.9256" x1="222.8" y1="510.835" x2="218.728" y2="522.239"/>
	<path fill="none" stroke="#433092" stroke-width="0.25" stroke-linejoin="bevel" stroke-miterlimit="22.9256" d="M240.14,528.267
		c7.267,1.517,14.629,2.532,22.036,3.041"/>
	<path fill="none" stroke="#433092" stroke-width="0.25" stroke-linejoin="bevel" stroke-miterlimit="22.9256" d="M263.005,519.226
		c6.854,0.471,13.731,0.471,20.584,0"/>
	<path fill="none" stroke="#433092" stroke-width="0.25" stroke-linejoin="bevel" stroke-miterlimit="22.9256" d="M284.42,531.307
		c7.406-0.509,14.769-1.525,22.035-3.042"/>
	<path fill="none" stroke="#433092" stroke-width="0.25" stroke-linejoin="bevel" stroke-miterlimit="22.9256" d="M303.98,516.41
		c6.725-1.404,13.345-3.268,19.814-5.578"/>
	<path fill="none" stroke="#433092" stroke-width="0.25" stroke-linejoin="bevel" stroke-miterlimit="22.9256" d="M327.867,522.237
		c6.991-2.497,13.803-5.47,20.387-8.898"/>
	<path fill="none" stroke="#433092" stroke-width="0.25" stroke-linejoin="bevel" stroke-miterlimit="22.9256" d="M435.418,376.489
		c0.309-7.076,0.154-14.165-0.463-21.222"/>
	<path fill="none" stroke="#433092" stroke-width="0.25" stroke-linejoin="bevel" stroke-miterlimit="22.9256" d="M421.181,395.486
		c1.139-6.454,1.853-12.977,2.139-19.525"/>
	<path fill="none" stroke="#433092" stroke-width="0.25" stroke-linejoin="bevel" stroke-miterlimit="22.9256" d="M428.062,418.209
		c2.13-6.756,3.815-13.644,5.046-20.619"/>
	<path fill="none" stroke="#433092" stroke-width="0.25" stroke-linejoin="bevel" stroke-miterlimit="22.9256" d="M409.393,432.874
		c2.77-5.94,5.148-12.056,7.119-18.308"/>
	<path fill="none" stroke="#433092" stroke-width="0.25" stroke-linejoin="bevel" stroke-miterlimit="22.9256" d="M410.158,456.603
		c3.806-5.974,7.217-12.19,10.21-18.61"/>
	<path fill="none" stroke="#433092" stroke-width="0.25" stroke-linejoin="bevel" stroke-miterlimit="22.9256" d="M388.329,465.937
		c4.214-5.021,8.094-10.313,11.615-15.841"/>
	
		<line fill="none" stroke="#433092" stroke-width="0.25" stroke-linejoin="bevel" stroke-miterlimit="22.9256" x1="289.683" y1="453.973" x2="273.294" y2="440.324"/>
	
		<line fill="none" stroke="#433092" stroke-width="0.25" stroke-linejoin="bevel" stroke-miterlimit="22.9256" x1="295.011" y1="449.536" x2="278.622" y2="435.888"/>
	
		<line fill="none" stroke="#433092" stroke-width="0.25" stroke-linejoin="bevel" stroke-miterlimit="22.9256" x1="288.389" y1="427.753" x2="285.725" y2="429.972"/>
	
		<line fill="none" stroke="#433092" stroke-width="0.25" stroke-linejoin="bevel" stroke-miterlimit="22.9256" x1="283.062" y1="423.316" x2="280.397" y2="425.535"/>
	
		<line fill="none" stroke="#433092" stroke-width="0.25" stroke-linejoin="bevel" stroke-miterlimit="22.9256" x1="271.146" y1="418.57" x2="254.851" y2="432.142"/>
	
		<line fill="none" stroke="#433092" stroke-width="0.25" stroke-linejoin="bevel" stroke-miterlimit="22.9256" x1="263.085" y1="416.41" x2="249.523" y2="427.705"/>
	
		<line fill="none" stroke="#433092" stroke-width="0.25" stroke-linejoin="bevel" stroke-miterlimit="22.9256" x1="281.901" y1="416.435" x2="296.38" y2="428.492"/>
	
		<line fill="none" stroke="#433092" stroke-width="0.25" stroke-linejoin="bevel" stroke-miterlimit="22.9256" x1="278.35" y1="419.393" x2="292.829" y2="431.45"/>
	
		<line fill="none" stroke="#433092" stroke-width="0.25" stroke-linejoin="bevel" stroke-miterlimit="22.9256" x1="275.686" y1="421.611" x2="290.165" y2="433.669"/>
	
		<line fill="none" stroke="#433092" stroke-width="0.25" stroke-linejoin="bevel" stroke-miterlimit="22.9256" x1="272.135" y1="424.569" x2="286.613" y2="436.627"/>
	
		<line fill="none" stroke="#433092" stroke-width="0.25" stroke-linejoin="bevel" stroke-miterlimit="22.9256" x1="272.135" y1="424.569" x2="275.686" y2="421.611"/>
	
		<line fill="none" stroke="#433092" stroke-width="0.25" stroke-linejoin="bevel" stroke-miterlimit="22.9256" x1="296.38" y1="428.492" x2="292.829" y2="431.45"/>
	
		<line fill="none" stroke="#433092" stroke-width="0.25" stroke-linejoin="bevel" stroke-miterlimit="22.9256" x1="290.165" y1="433.669" x2="286.613" y2="436.627"/>
	
		<line fill="none" stroke="#433092" stroke-width="0.25" stroke-linejoin="bevel" stroke-miterlimit="22.9256" x1="278.35" y1="419.393" x2="281.901" y2="416.435"/>
	
		<line fill="none" stroke="#433092" stroke-width="0.25" stroke-linejoin="bevel" stroke-miterlimit="22.9256" x1="282.173" y1="432.93" x2="278.622" y2="435.888"/>
	
		<line fill="none" stroke="#433092" stroke-width="0.25" stroke-linejoin="bevel" stroke-miterlimit="22.9256" x1="276.846" y1="428.492" x2="273.294" y2="431.45"/>
	
		<line fill="none" stroke="#433092" stroke-width="0.25" stroke-linejoin="bevel" stroke-miterlimit="22.9256" x1="256.905" y1="453.973" x2="251.578" y2="449.536"/>
	
		<line fill="none" stroke="#433092" stroke-width="0.25" stroke-linejoin="bevel" stroke-miterlimit="22.9256" x1="295.011" y1="449.536" x2="289.683" y2="453.973"/>
	
		<line fill="none" stroke="#433092" stroke-width="0.25" stroke-linejoin="bevel" stroke-miterlimit="22.9256" x1="267.966" y1="435.888" x2="259.16" y2="428.553"/>
	
		<line fill="none" stroke="#433092" stroke-width="0.25" stroke-linejoin="bevel" stroke-miterlimit="22.9256" x1="273.294" y1="431.45" x2="264.487" y2="424.116"/>
	
		<line fill="none" stroke="#433092" stroke-width="0.25" stroke-linejoin="bevel" stroke-miterlimit="22.9256" x1="273.294" y1="440.324" x2="256.905" y2="453.973"/>
	
		<line fill="none" stroke="#433092" stroke-width="0.25" stroke-linejoin="bevel" stroke-miterlimit="22.9256" x1="267.966" y1="435.888" x2="251.578" y2="449.536"/>
	
		<line fill="none" stroke="#433092" stroke-width="0.25" stroke-linejoin="bevel" stroke-miterlimit="22.9256" x1="254.851" y1="432.142" x2="249.523" y2="427.705"/>
	
		<line fill="none" stroke="#433092" stroke-width="0.25" stroke-linejoin="bevel" stroke-miterlimit="22.9256" x1="271.146" y1="418.57" x2="263.085" y2="416.41"/>
	<path fill="none" stroke="#433092" stroke-width="0.25" stroke-linejoin="bevel" stroke-miterlimit="22.9256" d="M221.802,320.193
		 M221.772,320.221 M221.831,320.165c3.407,3.595,8.085,5.709,13.035,5.887 M234.863,326.133c-4.969-0.179-9.671-2.304-13.091-5.912
		"/>
	<path fill="none" stroke="#433092" stroke-width="0.25" stroke-linejoin="bevel" stroke-miterlimit="22.9256" d="M202.227,327.26
		c-1.846-3.845-5.733-6.291-9.998-6.291"/>
	<path fill="none" stroke="#433092" stroke-width="0.25" stroke-linejoin="bevel" stroke-miterlimit="22.9256" d="M206.284,335.874
		c-1.331-2.881-2.684-5.752-4.057-8.614"/>
	<path fill="none" stroke="#433092" stroke-width="0.25" stroke-linejoin="bevel" stroke-miterlimit="22.9256" d="M206.284,335.874
		c6.123,11.588,17.416,19.55,30.387,21.426"/>
	
		<line fill="none" stroke="#433092" stroke-width="0.25" stroke-linejoin="bevel" stroke-miterlimit="22.9256" x1="206.132" y1="365.701" x2="159.897" y2="499.976"/>
	
		<line fill="none" stroke="#433092" stroke-width="0.25" stroke-linejoin="bevel" stroke-miterlimit="22.9256" x1="220.871" y1="366.731" x2="173.533" y2="504.212"/>
	<path fill="none" stroke="#433092" stroke-width="0.25" stroke-linejoin="bevel" stroke-miterlimit="22.9256" d="M198.594,330.893
		c-1.845-3.845-5.732-6.291-9.998-6.291"/>
	<path fill="none" stroke="#433092" stroke-width="0.25" stroke-linejoin="bevel" stroke-miterlimit="22.9256" d="M202.651,339.507
		c-0.431-0.932-0.864-1.864-1.299-2.794"/>
	<path fill="none" stroke="#433092" stroke-width="0.25" stroke-linejoin="bevel" stroke-miterlimit="22.9256" d="M202.651,339.507
		c1.052,1.991,2.266,3.892,3.63,5.683"/>
	<path fill="none" stroke="#433092" stroke-width="0.25" stroke-linejoin="bevel" stroke-miterlimit="22.9256" d="M357.992,324.603
		c-4.266,0-8.152,2.445-9.998,6.291"/>
	<path fill="none" stroke="#433092" stroke-width="0.25" stroke-linejoin="bevel" stroke-miterlimit="22.9256" d="M347.994,330.893
		c-0.35,0.729-0.698,1.457-1.044,2.187"/>
	<path fill="none" stroke="#433092" stroke-width="0.25" stroke-linejoin="bevel" stroke-miterlimit="22.9256" d="M325.461,357.3
		c4.382-2.107,8.353-4.979,11.729-8.477"/>
	<path fill="none" stroke="#433092" stroke-width="0.25" stroke-linejoin="bevel" stroke-miterlimit="22.9256" d="M354.358,320.969
		c-4.265,0-8.151,2.446-9.997,6.291"/>
	<path fill="none" stroke="#433092" stroke-width="0.25" stroke-linejoin="bevel" stroke-miterlimit="22.9256" d="M344.361,327.26
		c-1.374,2.861-2.726,5.733-4.058,8.614"/>
	<path fill="none" stroke="#433092" stroke-width="0.25" stroke-linejoin="bevel" stroke-miterlimit="22.9256" d="M309.917,357.3
		c12.971-1.876,24.264-9.838,30.387-21.426"/>
	
		<line fill="none" stroke="#433092" stroke-width="0.25" stroke-linejoin="bevel" stroke-miterlimit="22.9256" x1="206.281" y1="345.19" x2="126.292" y2="345.19"/>
	
		<line fill="none" stroke="#433092" stroke-width="0.25" stroke-linejoin="bevel" stroke-miterlimit="22.9256" x1="209.398" y1="348.823" x2="133.559" y2="348.823"/>
	
		<line fill="none" stroke="#433092" stroke-width="0.25" stroke-linejoin="bevel" stroke-miterlimit="22.9256" x1="221.127" y1="357.3" x2="142.036" y2="357.3"/>
	
		<line fill="none" stroke="#433092" stroke-width="0.25" stroke-linejoin="bevel" stroke-miterlimit="22.9256" x1="201.352" y1="336.713" x2="117.815" y2="336.713"/>
	
		<line fill="none" stroke="#433092" stroke-width="0.25" stroke-linejoin="bevel" stroke-miterlimit="22.9256" x1="199.638" y1="333.08" x2="109.943" y2="333.08"/>
	
		<line fill="none" stroke="#433092" stroke-width="0.25" stroke-linejoin="bevel" stroke-miterlimit="22.9256" x1="188.596" y1="324.603" x2="101.466" y2="324.603"/>
	
		<line fill="none" stroke="#433092" stroke-width="0.25" stroke-linejoin="bevel" stroke-miterlimit="22.9256" x1="192.229" y1="320.969" x2="104.58" y2="320.969"/>
	<path fill="none" stroke="#433092" stroke-width="0.25" stroke-linejoin="bevel" stroke-miterlimit="22.9256" d="M345.236,336.713
		c-0.436,0.93-0.868,1.862-1.299,2.794"/>
	<path fill="none" stroke="#433092" stroke-width="0.25" stroke-linejoin="bevel" stroke-miterlimit="22.9256" d="M340.307,345.19
		c1.364-1.792,2.579-3.692,3.631-5.683"/>
	<path fill="none" stroke="#433092" stroke-width="0.25" stroke-linejoin="bevel" stroke-miterlimit="22.9256" d="M199.638,333.08
		c-0.347-0.729-0.695-1.458-1.044-2.187"/>
	<path fill="none" stroke="#433092" stroke-width="0.25" stroke-linejoin="bevel" stroke-miterlimit="22.9256" d="M209.398,348.823
		c3.376,3.499,7.347,6.37,11.729,8.477"/>
	
		<line fill="none" stroke="#433092" stroke-width="0.25" stroke-linejoin="bevel" stroke-miterlimit="22.9256" x1="173.533" y1="504.212" x2="158.502" y2="532.027"/>
	
		<line fill="none" stroke="#433092" stroke-width="0.25" stroke-linejoin="bevel" stroke-miterlimit="22.9256" x1="159.897" y1="499.976" x2="154.878" y2="529.604"/>
	<path fill="none" stroke="#433092" stroke-width="0.25" stroke-linejoin="bevel" stroke-miterlimit="22.9256" d="M322.092,214.643
		c-6.756-2.13-13.643-3.815-20.618-5.046"/>
	<path fill="none" stroke="#433092" stroke-width="0.25" stroke-linejoin="bevel" stroke-miterlimit="22.9256" d="M336.758,233.312
		c-5.94-2.77-12.056-5.148-18.308-7.119"/>
	<path fill="none" stroke="#433092" stroke-width="0.25" stroke-linejoin="bevel" stroke-miterlimit="22.9256" d="M360.486,232.546
		c-5.974-3.806-12.191-7.216-18.61-10.21"/>
	<path fill="none" stroke="#433092" stroke-width="0.25" stroke-linejoin="bevel" stroke-miterlimit="22.9256" d="M369.82,254.375
		c-5.021-4.213-10.313-8.093-15.841-11.615"/>
	<path fill="none" stroke="#433092" stroke-width="0.25" stroke-linejoin="bevel" stroke-miterlimit="22.9256" d="M392.938,259.777
		c-4.786-5.222-9.908-10.125-15.334-14.679"/>
	
		<line fill="none" stroke="#433092" stroke-width="0.25" stroke-linejoin="bevel" stroke-miterlimit="22.9256" x1="192.669" y1="306.437" x2="90.047" y2="306.437"/>
	<path fill="none" stroke="#433092" stroke-width="0.25" stroke-linejoin="bevel" stroke-miterlimit="22.9256" d="M303.855,340.772
		c-1.93-24.777-12.071-42.152-23.345-40c-11.274,2.152-19.933,23.117-19.933,48.264c0,25.145,8.658,46.11,19.933,48.263
		c11.273,2.152,21.415-15.223,23.345-40 M303.855,340.772L303.855,340.772 M280.511,300.773L280.511,300.773 M260.578,349.037
		L260.578,349.037 M280.511,397.3L280.511,397.3 M303.855,357.3L303.855,357.3 M303.855,340.772
		c-1.93-24.777-12.071-42.152-23.345-40c-11.274,2.152-19.933,23.117-19.933,48.264c0,25.145,8.658,46.11,19.933,48.263
		c11.273,2.152,21.415-15.223,23.345-40 M303.855,340.772c-1.93-24.777-12.071-42.152-23.345-40
		c-11.274,2.152-19.933,23.117-19.933,48.264c0,25.145,8.658,46.11,19.933,48.263c11.273,2.152,21.415-15.223,23.345-40
		 M303.855,340.772c-1.93-24.777-12.071-42.152-23.345-40c-11.274,2.152-19.933,23.117-19.933,48.264
		c0,25.145,8.658,46.11,19.933,48.263c11.273,2.152,21.415-15.223,23.345-40 M303.855,340.772c-1.93-24.777-12.071-42.152-23.345-40
		c-11.274,2.152-19.933,23.117-19.933,48.264c0,25.145,8.658,46.11,19.933,48.263c11.273,2.152,21.415-15.223,23.345-40
		 M303.855,340.772c-1.93-24.777-12.071-42.152-23.345-40c-11.274,2.152-19.933,23.117-19.933,48.264
		c0,25.145,8.658,46.11,19.933,48.263c11.273,2.152,21.415-15.223,23.345-40 M303.855,340.772c-1.93-24.777-12.071-42.152-23.345-40
		c-11.274,2.152-19.933,23.117-19.933,48.264c0,25.145,8.658,46.11,19.933,48.263c11.273,2.152,21.415-15.223,23.345-40
		 M303.855,340.772c-1.93-24.777-12.071-42.152-23.345-40c-11.274,2.152-19.933,23.117-19.933,48.264
		c0,25.145,8.658,46.11,19.933,48.263c11.273,2.152,21.415-15.223,23.345-40 M303.855,340.772c-1.93-24.777-12.071-42.152-23.345-40
		c-11.274,2.152-19.933,23.117-19.933,48.264c0,25.145,8.658,46.11,19.933,48.263c11.273,2.152,21.415-15.223,23.345-40
		 M303.855,340.772c-1.93-24.777-12.071-42.152-23.345-40c-11.274,2.152-19.933,23.117-19.933,48.264
		c0,25.145,8.658,46.11,19.933,48.263c11.273,2.152,21.415-15.223,23.345-40 M303.855,340.772c-1.93-24.777-12.071-42.152-23.345-40
		c-11.274,2.152-19.933,23.117-19.933,48.264c0,25.145,8.658,46.11,19.933,48.263c11.273,2.152,21.415-15.223,23.345-40
		 M303.855,340.772c-1.93-24.777-12.071-42.152-23.345-40c-11.274,2.152-19.933,23.117-19.933,48.264
		c0,25.145,8.658,46.11,19.933,48.263c11.273,2.152,21.415-15.223,23.345-40 M303.855,340.772c-1.93-24.777-12.071-42.152-23.345-40
		c-11.274,2.152-19.933,23.117-19.933,48.264c0,25.145,8.658,46.11,19.933,48.263c11.273,2.152,21.415-15.223,23.345-40
		 M303.855,340.772c-1.93-24.777-12.071-42.152-23.345-40c-11.274,2.152-19.933,23.117-19.933,48.264
		c0,25.145,8.658,46.11,19.933,48.263c11.273,2.152,21.415-15.223,23.345-40 M303.855,340.772c-1.93-24.777-12.071-42.152-23.345-40
		c-11.274,2.152-19.933,23.117-19.933,48.264c0,25.145,8.658,46.11,19.933,48.263c11.273,2.152,21.415-15.223,23.345-40
		 M303.855,340.772c-1.93-24.777-12.071-42.152-23.345-40c-11.274,2.152-19.933,23.117-19.933,48.264
		c0,25.145,8.658,46.11,19.933,48.263c11.273,2.152,21.415-15.223,23.345-40 M303.855,340.772c-1.93-24.777-12.071-42.152-23.345-40
		c-11.274,2.152-19.933,23.117-19.933,48.264c0,25.145,8.658,46.11,19.933,48.263c11.273,2.152,21.415-15.223,23.345-40
		 M303.855,340.772c-1.93-24.777-12.071-42.152-23.345-40c-11.274,2.152-19.933,23.117-19.933,48.264
		c0,25.145,8.658,46.11,19.933,48.263c11.273,2.152,21.415-15.223,23.345-40 M303.855,340.772c-1.93-24.777-12.071-42.152-23.345-40
		c-11.274,2.152-19.933,23.117-19.933,48.264c0,25.145,8.658,46.11,19.933,48.263c11.273,2.152,21.415-15.223,23.345-40
		 M303.855,340.772c-1.93-24.777-12.071-42.152-23.345-40c-11.274,2.152-19.933,23.117-19.933,48.264
		c0,25.145,8.658,46.11,19.933,48.263c11.273,2.152,21.415-15.223,23.345-40 M303.855,340.772c-1.93-24.777-12.071-42.152-23.345-40
		c-11.274,2.152-19.933,23.117-19.933,48.264c0,25.145,8.658,46.11,19.933,48.263c11.273,2.152,21.415-15.223,23.345-39.999"/>
	<path fill="none" stroke="#433092" stroke-width="0.25" stroke-linejoin="bevel" stroke-miterlimit="22.9256" d="M264.211,303.017
		c-10.529,0-19.554,15.888-21.444,37.755 M264.211,303.017L264.211,303.017 M242.767,340.772L242.767,340.772 M264.211,303.017
		c-10.529,0-19.554,15.888-21.444,37.755 M264.211,303.017c-10.529,0-19.554,15.888-21.444,37.755 M264.211,303.017
		c-10.529,0-19.554,15.888-21.444,37.755 M264.211,303.017c-10.529,0-19.554,15.888-21.444,37.755 M264.211,303.017
		c-10.529,0-19.554,15.888-21.444,37.755 M264.211,303.017c-10.529,0-19.554,15.888-21.444,37.755 M264.211,303.017
		c-10.529,0-19.554,15.888-21.444,37.755 M264.211,303.017c-10.529,0-19.554,15.888-21.444,37.755 M264.211,303.017
		c-10.529,0-19.554,15.888-21.444,37.755 M264.211,303.017c-10.529,0-19.554,15.888-21.444,37.755 M264.211,303.017
		c-10.529,0-19.554,15.888-21.444,37.755 M264.211,303.017c-10.529,0-19.554,15.888-21.444,37.755 M264.211,303.017
		c-10.529,0-19.554,15.888-21.444,37.755 M264.211,303.017c-10.529,0-19.554,15.888-21.444,37.755 M264.211,303.017
		c-10.529,0-19.554,15.888-21.444,37.755 M264.211,303.017c-10.529,0-19.554,15.888-21.444,37.755 M264.211,303.017
		c-10.529,0-19.554,15.888-21.444,37.755 M264.211,303.017c-10.529,0-19.554,15.888-21.444,37.755 M264.211,303.017
		c-10.529,0-19.554,15.888-21.444,37.755 M264.211,303.017c-10.529,0-19.554,15.888-21.444,37.755"/>
	
		<line fill="none" stroke="#433092" stroke-width="0.25" stroke-linejoin="bevel" stroke-miterlimit="22.9256" x1="264.211" y1="303.017" x2="269.515" y2="303.017"/>
	
		<line fill="none" stroke="#433092" stroke-width="0.25" stroke-linejoin="bevel" stroke-miterlimit="22.9256" x1="264.211" y1="395.056" x2="269.515" y2="395.056"/>
	
		<line fill="none" stroke="#433092" stroke-width="0.25" stroke-linejoin="bevel" stroke-miterlimit="22.9256" x1="309.917" y1="340.772" x2="303.855" y2="340.772"/>
	
		<line fill="none" stroke="#433092" stroke-width="0.25" stroke-linejoin="bevel" stroke-miterlimit="22.9256" x1="309.917" y1="357.3" x2="303.855" y2="357.3"/>
	
		<line fill="none" stroke="#433092" stroke-width="0.25" stroke-linejoin="bevel" stroke-miterlimit="22.9256" x1="236.671" y1="340.772" x2="242.767" y2="340.772"/>
	
		<line fill="none" stroke="#433092" stroke-width="0.25" stroke-linejoin="bevel" stroke-miterlimit="22.9256" x1="236.671" y1="357.3" x2="242.767" y2="357.3"/>
	<path fill="none" stroke="#433092" stroke-width="0.25" stroke-linejoin="bevel" stroke-miterlimit="22.9256" d="M282.377,339.348
		c-1.558,0-2.997,1.847-3.775,4.844c-0.779,2.998-0.779,6.691,0,9.688c0.778,2.998,2.218,4.845,3.775,4.845 M282.377,339.348
		L282.377,339.348 M278.602,344.192L278.602,344.192 M278.602,353.88L278.602,353.88 M282.377,358.725L282.377,358.725
		 M282.377,339.348c-1.558,0-2.997,1.847-3.775,4.844c-0.779,2.998-0.779,6.691,0,9.688c0.778,2.998,2.218,4.845,3.775,4.845
		 M282.377,339.348c-1.558,0-2.997,1.847-3.775,4.844c-0.779,2.998-0.779,6.691,0,9.688c0.778,2.998,2.218,4.845,3.775,4.845
		 M282.377,339.348c-1.558,0-2.997,1.847-3.775,4.844c-0.779,2.998-0.779,6.691,0,9.688c0.778,2.998,2.218,4.845,3.775,4.845
		 M282.377,339.348c-1.558,0-2.997,1.847-3.775,4.844c-0.779,2.998-0.779,6.691,0,9.688c0.778,2.998,2.218,4.845,3.775,4.845
		 M282.377,339.348c-1.558,0-2.997,1.847-3.775,4.844c-0.779,2.998-0.779,6.691,0,9.688c0.778,2.998,2.218,4.845,3.775,4.845
		 M282.377,339.348c-1.558,0-2.997,1.847-3.775,4.844c-0.779,2.998-0.779,6.691,0,9.688c0.778,2.998,2.218,4.845,3.775,4.845
		 M282.377,339.348c-1.558,0-2.997,1.847-3.775,4.844c-0.779,2.998-0.779,6.691,0,9.688c0.778,2.998,2.218,4.845,3.775,4.845
		 M282.377,339.348c-1.558,0-2.997,1.847-3.775,4.844c-0.779,2.998-0.779,6.691,0,9.688c0.778,2.998,2.218,4.845,3.775,4.845
		 M282.377,339.348c-1.558,0-2.997,1.847-3.775,4.844c-0.779,2.998-0.779,6.691,0,9.688c0.778,2.998,2.218,4.845,3.775,4.845
		 M282.377,339.348c-1.558,0-2.997,1.847-3.775,4.844c-0.779,2.998-0.779,6.691,0,9.688c0.778,2.998,2.218,4.845,3.775,4.845
		 M282.377,339.348c-1.558,0-2.997,1.847-3.775,4.844c-0.779,2.998-0.779,6.691,0,9.688c0.778,2.998,2.218,4.845,3.775,4.845
		 M282.377,339.348c-1.558,0-2.997,1.847-3.775,4.844c-0.779,2.998-0.779,6.691,0,9.688c0.778,2.998,2.218,4.845,3.775,4.845
		 M282.377,339.348c-1.558,0-2.997,1.847-3.775,4.844c-0.779,2.998-0.779,6.691,0,9.688c0.778,2.998,2.218,4.845,3.775,4.845
		 M282.377,339.348c-1.558,0-2.997,1.847-3.775,4.844c-0.779,2.998-0.779,6.691,0,9.688c0.778,2.998,2.218,4.845,3.775,4.845
		 M282.377,339.348c-1.558,0-2.997,1.847-3.775,4.844c-0.779,2.998-0.779,6.691,0,9.688c0.778,2.998,2.218,4.845,3.775,4.845
		 M282.377,339.348c-1.558,0-2.997,1.847-3.775,4.844c-0.779,2.998-0.779,6.691,0,9.688c0.778,2.998,2.218,4.845,3.775,4.845
		 M282.377,339.348c-1.558,0-2.997,1.847-3.775,4.844c-0.779,2.998-0.779,6.691,0,9.688c0.778,2.998,2.218,4.845,3.775,4.845
		 M282.377,339.348c-1.558,0-2.997,1.847-3.775,4.844c-0.779,2.998-0.779,6.691,0,9.689c0.778,2.997,2.218,4.844,3.775,4.844
		 M282.377,339.348c-1.558,0-2.997,1.847-3.775,4.844c-0.779,2.998-0.779,6.691,0,9.689c0.778,2.997,2.218,4.844,3.775,4.844
		 M282.377,339.348c-1.558,0-2.997,1.847-3.775,4.844c-0.779,2.998-0.779,6.691,0,9.689c0.778,2.997,2.218,4.844,3.775,4.844"/>
	<path fill="none" stroke="#433092" stroke-width="0.25" stroke-linejoin="bevel" stroke-miterlimit="22.9256" d="M279.954,339.348
		c-1.704,0-3.252,2.208-3.963,5.652c-0.71,3.444-0.452,7.491,0.661,10.361c1.112,2.87,2.876,4.035,4.514,2.982 M279.954,339.348
		L279.954,339.348 M275.991,345L275.991,345 M276.652,355.36L276.652,355.36 M281.166,358.343L281.166,358.343 M279.954,339.348
		c-1.704,0-3.252,2.208-3.963,5.652c-0.71,3.444-0.452,7.491,0.661,10.361c1.112,2.87,2.876,4.035,4.514,2.982 M279.954,339.348
		c-1.704,0-3.252,2.208-3.963,5.652c-0.71,3.444-0.452,7.491,0.661,10.361c1.112,2.87,2.876,4.035,4.514,2.982 M279.954,339.348
		c-1.704,0-3.252,2.208-3.963,5.652c-0.71,3.444-0.452,7.491,0.661,10.361c1.112,2.87,2.876,4.035,4.514,2.982 M279.954,339.348
		c-1.704,0-3.252,2.208-3.963,5.652c-0.71,3.444-0.452,7.491,0.661,10.361c1.112,2.87,2.876,4.035,4.514,2.982 M279.954,339.348
		c-1.704,0-3.252,2.208-3.963,5.652c-0.71,3.444-0.452,7.491,0.661,10.361c1.112,2.87,2.876,4.035,4.514,2.982 M279.954,339.348
		c-1.704,0-3.252,2.208-3.963,5.652c-0.71,3.444-0.452,7.491,0.661,10.361c1.112,2.87,2.876,4.035,4.514,2.982 M279.954,339.348
		c-1.704,0-3.252,2.208-3.963,5.652c-0.71,3.444-0.452,7.491,0.661,10.361c1.112,2.87,2.876,4.035,4.514,2.982 M279.954,339.348
		c-1.704,0-3.252,2.208-3.963,5.652c-0.71,3.444-0.452,7.491,0.661,10.361c1.112,2.87,2.876,4.035,4.514,2.982 M279.954,339.348
		c-1.704,0-3.252,2.208-3.963,5.652c-0.71,3.444-0.452,7.491,0.661,10.361c1.112,2.87,2.876,4.035,4.514,2.982 M279.954,339.348
		c-1.704,0-3.252,2.208-3.963,5.652c-0.71,3.444-0.452,7.491,0.661,10.361c1.112,2.87,2.876,4.035,4.514,2.982 M279.954,339.348
		c-1.704,0-3.252,2.208-3.963,5.652c-0.71,3.444-0.452,7.491,0.661,10.361c1.112,2.87,2.876,4.035,4.514,2.982 M279.954,339.348
		c-1.704,0-3.252,2.208-3.963,5.652c-0.71,3.444-0.452,7.491,0.661,10.361c1.112,2.87,2.876,4.035,4.514,2.982 M279.954,339.348
		c-1.704,0-3.252,2.208-3.963,5.652c-0.71,3.444-0.452,7.491,0.661,10.361c1.112,2.87,2.876,4.035,4.514,2.982 M279.954,339.348
		c-1.704,0-3.252,2.208-3.963,5.652c-0.71,3.444-0.452,7.491,0.661,10.361c1.112,2.87,2.876,4.035,4.514,2.982 M279.954,339.348
		c-1.704,0-3.252,2.208-3.963,5.652c-0.71,3.444-0.452,7.491,0.661,10.361c1.112,2.87,2.876,4.035,4.514,2.982 M279.954,339.348
		c-1.704,0-3.252,2.208-3.963,5.652c-0.71,3.444-0.452,7.491,0.661,10.361c1.112,2.87,2.876,4.035,4.514,2.982 M279.954,339.348
		c-1.704,0-3.252,2.208-3.963,5.652c-0.71,3.444-0.452,7.491,0.661,10.361c1.112,2.87,2.876,4.035,4.514,2.982 M279.954,339.348
		c-1.704,0-3.252,2.208-3.963,5.652c-0.71,3.444-0.452,7.491,0.661,10.361c1.112,2.87,2.876,4.035,4.514,2.982 M279.954,339.348
		c-1.704,0-3.252,2.208-3.963,5.652c-0.71,3.444-0.452,7.491,0.661,10.361c1.112,2.87,2.876,4.035,4.514,2.982 M279.954,339.348
		c-1.704,0-3.252,2.208-3.963,5.652c-0.71,3.444-0.452,7.491,0.661,10.361c1.112,2.87,2.876,4.035,4.514,2.982"/>
	
		<line fill="none" stroke="#433092" stroke-width="0.25" stroke-linejoin="bevel" stroke-miterlimit="22.9256" x1="282.377" y1="339.348" x2="279.954" y2="339.348"/>
	
		<line fill="none" stroke="#433092" stroke-width="0.25" stroke-linejoin="bevel" stroke-miterlimit="22.9256" x1="282.377" y1="358.725" x2="279.954" y2="358.725"/>
	<path fill="none" stroke="#433092" stroke-width="0.25" stroke-linejoin="bevel" stroke-miterlimit="22.9256" d="M123.269,375.961
		c0.286,6.549,1,13.071,2.138,19.525"/>
	
		<line fill="none" stroke="#433092" stroke-width="0.25" stroke-linejoin="bevel" stroke-miterlimit="22.9256" x1="123.269" y1="375.961" x2="111.17" y2="376.489"/>
	<path fill="none" stroke="#433092" stroke-width="0.25" stroke-linejoin="bevel" stroke-miterlimit="22.9256" d="M111.633,355.267
		c-0.617,7.057-0.772,14.146-0.463,21.223"/>
	<path fill="none" stroke="#433092" stroke-width="0.25" stroke-linejoin="bevel" stroke-miterlimit="22.9256" d="M146.335,376.537
		c1.397,24.882,10.074,48.806,24.954,68.797"/>
	
		<line fill="none" stroke="#433092" stroke-width="0.25" stroke-linejoin="bevel" stroke-miterlimit="22.9256" x1="171.289" y1="445.334" x2="158.082" y2="483.692"/>
	<path fill="none" stroke="#433092" stroke-width="0.25" stroke-linejoin="bevel" stroke-miterlimit="22.9256" d="M148.981,473.721
		c2.894,3.448,5.93,6.775,9.1,9.972"/>
	
		<line fill="none" stroke="#433092" stroke-width="0.25" stroke-linejoin="bevel" stroke-miterlimit="22.9256" x1="148.981" y1="473.721" x2="158.258" y2="465.937"/>
	<path fill="none" stroke="#433092" stroke-width="0.25" stroke-linejoin="bevel" stroke-miterlimit="22.9256" d="M146.644,450.096
		c3.522,5.528,7.402,10.82,11.615,15.841"/>
	
		<line fill="none" stroke="#433092" stroke-width="0.25" stroke-linejoin="bevel" stroke-miterlimit="22.9256" x1="146.644" y1="450.096" x2="136.43" y2="456.603"/>
	<path fill="none" stroke="#433092" stroke-width="0.25" stroke-linejoin="bevel" stroke-miterlimit="22.9256" d="M126.22,437.992
		c2.994,6.42,6.404,12.637,10.21,18.61"/>
	
		<line fill="none" stroke="#433092" stroke-width="0.25" stroke-linejoin="bevel" stroke-miterlimit="22.9256" x1="126.22" y1="437.992" x2="137.196" y2="432.874"/>
	<path fill="none" stroke="#433092" stroke-width="0.25" stroke-linejoin="bevel" stroke-miterlimit="22.9256" d="M130.076,414.566
		c1.971,6.252,4.35,12.367,7.12,18.308"/>
	
		<line fill="none" stroke="#433092" stroke-width="0.25" stroke-linejoin="bevel" stroke-miterlimit="22.9256" x1="130.076" y1="414.566" x2="118.526" y2="418.209"/>
	<path fill="none" stroke="#433092" stroke-width="0.25" stroke-linejoin="bevel" stroke-miterlimit="22.9256" d="M113.481,397.59
		c1.23,6.976,2.916,13.863,5.045,20.619"/>
	
		<line fill="none" stroke="#433092" stroke-width="0.25" stroke-linejoin="bevel" stroke-miterlimit="22.9256" x1="113.481" y1="397.59" x2="125.407" y2="395.486"/>
	
		<line fill="none" stroke="#433092" stroke-width="0.25" stroke-linejoin="bevel" stroke-miterlimit="22.9256" x1="193.329" y1="468.278" x2="191.401" y2="473.877"/>
	
		<line fill="none" stroke="#433092" stroke-width="0.25" stroke-linejoin="bevel" stroke-miterlimit="22.9256" x1="203.934" y1="502.601" x2="198.34" y2="513.342"/>
	<path fill="none" stroke="#433092" stroke-width="0.25" stroke-linejoin="bevel" stroke-miterlimit="22.9256" d="M185.438,491.196
		c5.882,4.243,12.063,8.055,18.496,11.404"/>
	
		<line fill="none" stroke="#433092" stroke-width="0.25" stroke-linejoin="bevel" stroke-miterlimit="22.9256" x1="280.348" y1="207.132" x2="285.856" y2="207.132"/>
	
		<line fill="none" stroke="#433092" stroke-width="0.25" stroke-linejoin="bevel" stroke-miterlimit="22.9256" x1="285.856" y1="207.132" x2="324.786" y2="320.193"/>
	
		<line fill="none" stroke="#433092" stroke-width="0.25" stroke-linejoin="bevel" stroke-miterlimit="22.9256" x1="282.982" y1="242.622" x2="311.724" y2="326.092"/>
	<path fill="none" stroke="#433092" stroke-width="0.25" stroke-linejoin="bevel" stroke-miterlimit="22.9256" d="M393.96,528.037
		c0.643-0.454,1.283-0.912,1.92-1.374"/>
	
		<line fill="none" stroke="#433092" stroke-width="0.25" stroke-linejoin="bevel" stroke-miterlimit="22.9256" x1="325.717" y1="366.731" x2="340.456" y2="365.701"/>
	<path fill="none" stroke="#433092" stroke-width="0.25" stroke-linejoin="bevel" stroke-miterlimit="22.9256" d="M311.724,326.092
		 M311.725,326.133 M311.722,326.052c4.95-0.179,9.629-2.291,13.035-5.887 M324.815,320.221c-3.419,3.609-8.122,5.732-13.091,5.912"
		/>
	
		<line fill="none" stroke="#433092" stroke-width="0.25" stroke-linejoin="bevel" stroke-miterlimit="22.9256" x1="340.456" y1="365.701" x2="395.88" y2="526.663"/>
	
		<line fill="none" stroke="#433092" stroke-width="0.25" stroke-linejoin="bevel" stroke-miterlimit="22.9256" x1="325.717" y1="366.731" x2="373.055" y2="504.212"/>
	
		<line fill="none" stroke="#433092" stroke-width="0.25" stroke-linejoin="bevel" stroke-miterlimit="22.9256" x1="373.055" y1="504.212" x2="393.96" y2="528.037"/>
	<path fill="none" stroke="#433092" stroke-width="0.25" stroke-linejoin="bevel" stroke-miterlimit="22.9256" d="M421.181,395.486
		c1.139-6.454,1.853-12.977,2.139-19.525"/>
	
		<line fill="none" stroke="#433092" stroke-width="0.25" stroke-linejoin="bevel" stroke-miterlimit="22.9256" x1="423.319" y1="375.961" x2="435.418" y2="376.489"/>
	<path fill="none" stroke="#433092" stroke-width="0.25" stroke-linejoin="bevel" stroke-miterlimit="22.9256" d="M435.418,376.489
		c0.309-7.076,0.154-14.165-0.463-21.222"/>
	
		<line fill="none" stroke="#433092" stroke-width="0.25" stroke-linejoin="bevel" stroke-miterlimit="22.9256" x1="434.955" y1="355.267" x2="427.581" y2="355.912"/>
	<path fill="none" stroke="#433092" stroke-width="0.25" stroke-linejoin="bevel" stroke-miterlimit="22.9256" d="M375.299,445.334
		c14.88-19.991,23.557-43.915,24.953-68.797"/>
	
		<line fill="none" stroke="#433092" stroke-width="0.25" stroke-linejoin="bevel" stroke-miterlimit="22.9256" x1="375.299" y1="445.334" x2="388.507" y2="483.692"/>
	<path fill="none" stroke="#433092" stroke-width="0.25" stroke-linejoin="bevel" stroke-miterlimit="22.9256" d="M388.507,483.692
		c3.17-3.196,6.206-6.523,9.1-9.972"/>
	
		<line fill="none" stroke="#433092" stroke-width="0.25" stroke-linejoin="bevel" stroke-miterlimit="22.9256" x1="397.606" y1="473.721" x2="388.329" y2="465.937"/>
	<path fill="none" stroke="#433092" stroke-width="0.25" stroke-linejoin="bevel" stroke-miterlimit="22.9256" d="M388.329,465.937
		c4.214-5.021,8.094-10.313,11.615-15.841"/>
	
		<line fill="none" stroke="#433092" stroke-width="0.25" stroke-linejoin="bevel" stroke-miterlimit="22.9256" x1="399.944" y1="450.096" x2="410.158" y2="456.603"/>
	<path fill="none" stroke="#433092" stroke-width="0.25" stroke-linejoin="bevel" stroke-miterlimit="22.9256" d="M410.158,456.603
		c3.806-5.974,7.217-12.19,10.21-18.61"/>
	
		<line fill="none" stroke="#433092" stroke-width="0.25" stroke-linejoin="bevel" stroke-miterlimit="22.9256" x1="420.368" y1="437.992" x2="409.393" y2="432.874"/>
	<path fill="none" stroke="#433092" stroke-width="0.25" stroke-linejoin="bevel" stroke-miterlimit="22.9256" d="M409.393,432.874
		c2.77-5.94,5.148-12.056,7.119-18.308"/>
	
		<line fill="none" stroke="#433092" stroke-width="0.25" stroke-linejoin="bevel" stroke-miterlimit="22.9256" x1="416.512" y1="414.566" x2="428.062" y2="418.209"/>
	<path fill="none" stroke="#433092" stroke-width="0.25" stroke-linejoin="bevel" stroke-miterlimit="22.9256" d="M428.062,418.209
		c2.13-6.756,3.815-13.644,5.046-20.619"/>
	
		<line fill="none" stroke="#433092" stroke-width="0.25" stroke-linejoin="bevel" stroke-miterlimit="22.9256" x1="433.107" y1="397.59" x2="421.181" y2="395.486"/>
	
		<line fill="none" stroke="#433092" stroke-width="0.25" stroke-linejoin="bevel" stroke-miterlimit="22.9256" x1="353.259" y1="468.278" x2="355.187" y2="473.877"/>
	
		<line fill="none" stroke="#433092" stroke-width="0.25" stroke-linejoin="bevel" stroke-miterlimit="22.9256" x1="342.66" y1="502.598" x2="348.254" y2="513.339"/>
	<path fill="none" stroke="#433092" stroke-width="0.25" stroke-linejoin="bevel" stroke-miterlimit="22.9256" d="M342.66,502.598
		c6.431-3.35,12.61-7.16,18.49-11.401"/>
	
		<line fill="none" stroke="#433092" stroke-width="0.25" stroke-linejoin="bevel" stroke-miterlimit="22.9256" x1="400.252" y1="376.537" x2="427.581" y2="355.912"/>
	
		<line fill="none" stroke="#433092" stroke-width="0.25" stroke-linejoin="bevel" stroke-miterlimit="22.9256" x1="119.007" y1="355.912" x2="111.633" y2="355.267"/>
	
		<line fill="none" stroke="#433092" stroke-width="0.25" stroke-linejoin="bevel" stroke-miterlimit="22.9256" x1="111.633" y1="355.267" x2="119.007" y2="355.912"/>
	
		<line fill="none" stroke="#433092" stroke-width="0.25" stroke-linejoin="bevel" stroke-miterlimit="22.9256" x1="146.335" y1="376.537" x2="119.007" y2="355.912"/>
	<path fill="none" stroke="#433092" stroke-width="0.25" stroke-linejoin="bevel" stroke-miterlimit="22.9256" d="M242.767,357.3
		c1.891,21.867,10.915,37.756,21.444,37.756 M242.767,357.3L242.767,357.3 M264.211,395.056L264.211,395.056 M242.767,357.3
		c1.891,21.867,10.915,37.756,21.444,37.756 M242.767,357.3c1.891,21.867,10.915,37.756,21.444,37.756 M242.767,357.3
		c1.891,21.867,10.915,37.756,21.444,37.756 M242.767,357.3c1.891,21.867,10.915,37.756,21.444,37.756 M242.767,357.3
		c1.891,21.867,10.915,37.756,21.444,37.756 M242.767,357.3c1.891,21.867,10.915,37.756,21.444,37.756 M242.767,357.3
		c1.891,21.867,10.915,37.756,21.444,37.756 M242.767,357.3c1.891,21.867,10.915,37.756,21.444,37.756 M242.767,357.3
		c1.891,21.867,10.915,37.756,21.444,37.756 M242.767,357.3c1.891,21.867,10.915,37.756,21.444,37.756 M242.767,357.3
		c1.891,21.867,10.915,37.756,21.444,37.756 M242.767,357.3c1.891,21.867,10.915,37.756,21.444,37.756 M242.767,357.3
		c1.891,21.867,10.915,37.756,21.444,37.756 M242.767,357.3c1.891,21.867,10.915,37.756,21.444,37.756 M242.767,357.3
		c1.891,21.867,10.915,37.756,21.444,37.756 M242.767,357.3c1.891,21.867,10.915,37.756,21.444,37.756 M242.767,357.3
		c1.891,21.867,10.915,37.756,21.444,37.756 M242.767,357.3c1.891,21.867,10.915,37.756,21.444,37.756 M242.767,357.3
		c1.891,21.867,10.915,37.756,21.444,37.756 M242.767,357.301c1.891,21.866,10.915,37.755,21.444,37.755"/>
	<path fill="none" stroke="#433092" stroke-width="0.25" stroke-linejoin="bevel" stroke-miterlimit="22.9256" d="M269.515,303.017
		c-8.946,6.534-14.992,25.094-14.992,46.02c0,20.924,6.046,39.485,14.992,46.019 M269.515,303.017L269.515,303.017 M254.523,349.037
		L254.523,349.037 M269.515,395.056L269.515,395.056 M269.515,303.017c-8.946,6.534-14.992,25.094-14.992,46.02
		c0,20.924,6.046,39.485,14.992,46.019 M269.515,303.017c-8.946,6.534-14.992,25.094-14.992,46.02
		c0,20.924,6.046,39.485,14.992,46.019 M269.515,303.017c-8.946,6.534-14.992,25.094-14.992,46.02
		c0,20.924,6.046,39.485,14.992,46.019 M269.515,303.017c-8.946,6.534-14.992,25.094-14.992,46.02
		c0,20.924,6.046,39.485,14.992,46.019 M269.515,303.017c-8.946,6.534-14.992,25.094-14.992,46.02
		c0,20.924,6.046,39.485,14.992,46.019 M269.515,303.017c-8.946,6.534-14.992,25.094-14.992,46.02
		c0,20.924,6.046,39.485,14.992,46.019 M269.515,303.017c-8.946,6.534-14.992,25.094-14.992,46.02
		c0,20.924,6.046,39.485,14.992,46.019 M269.515,303.017c-8.946,6.534-14.992,25.094-14.992,46.02
		c0,20.924,6.046,39.485,14.992,46.019 M269.515,303.017c-8.946,6.534-14.992,25.094-14.992,46.02
		c0,20.924,6.046,39.485,14.992,46.019 M269.515,303.017c-8.946,6.534-14.992,25.094-14.992,46.02
		c0,20.924,6.046,39.485,14.992,46.019 M269.515,303.017c-8.946,6.534-14.992,25.094-14.992,46.02
		c0,20.924,6.046,39.485,14.992,46.019 M269.515,303.017c-8.946,6.534-14.992,25.094-14.992,46.02
		c0,20.924,6.046,39.485,14.992,46.019 M269.515,303.017c-8.946,6.534-14.992,25.094-14.992,46.02
		c0,20.924,6.046,39.485,14.992,46.019 M269.515,303.017c-8.946,6.534-14.992,25.094-14.992,46.02
		c0,20.924,6.046,39.485,14.992,46.019 M269.515,303.017c-8.946,6.534-14.992,25.094-14.992,46.02
		c0,20.924,6.046,39.485,14.992,46.019 M269.515,303.017c-8.946,6.534-14.992,25.094-14.992,46.02
		c0,20.924,6.046,39.485,14.992,46.019 M269.515,303.017c-8.946,6.534-14.992,25.094-14.992,46.02
		c0,20.924,6.046,39.485,14.992,46.019 M269.515,303.017c-8.946,6.534-14.992,25.094-14.992,46.02
		c0,20.924,6.046,39.485,14.992,46.019 M269.515,303.017c-8.946,6.534-14.992,25.094-14.992,46.02
		c0,20.924,6.046,39.485,14.992,46.019 M269.515,303.017c-8.946,6.534-14.992,25.094-14.992,46.02
		c0,20.924,6.046,39.485,14.992,46.019"/>
	<path fill="none" stroke="#433092" stroke-width="0.25" stroke-linejoin="bevel" stroke-miterlimit="22.9256" d="M215.331,320.969
		c-4.196-8.742-12.967-14.366-22.662-14.533"/>
	<path fill="none" stroke="#433092" stroke-width="0.25" stroke-linejoin="bevel" stroke-miterlimit="22.9256" d="M219.48,329.777
		c-1.361-2.946-2.744-5.882-4.149-8.808"/>
	<path fill="none" stroke="#433092" stroke-width="0.25" stroke-linejoin="bevel" stroke-miterlimit="22.9256" d="M219.48,329.777
		c3.097,6.703,9.807,10.995,17.191,10.995"/>
	<path fill="none" stroke="#433092" stroke-width="0.25" stroke-linejoin="bevel" stroke-miterlimit="22.9256" d="M221.802,320.193
		c3.413,3.602,8.104,5.72,13.063,5.899"/>
	<path fill="none" stroke="#433092" stroke-width="0.25" stroke-linejoin="bevel" stroke-miterlimit="22.9256" d="M353.919,306.437
		c-9.695,0.167-18.466,5.791-22.662,14.533"/>
	<path fill="none" stroke="#433092" stroke-width="0.25" stroke-linejoin="bevel" stroke-miterlimit="22.9256" d="M331.257,320.969
		c-1.405,2.926-2.787,5.862-4.148,8.808"/>
	<path fill="none" stroke="#433092" stroke-width="0.25" stroke-linejoin="bevel" stroke-miterlimit="22.9256" d="M309.917,340.772
		c7.384,0,14.095-4.292,17.191-10.995"/>
	<path fill="none" stroke="#433092" stroke-width="0.25" stroke-linejoin="bevel" stroke-miterlimit="22.9256" d="M311.724,326.092
		c4.959-0.179,9.649-2.297,13.063-5.899"/>
	<g>
		<path fill="none" stroke="#433092" stroke-width="0.25" stroke-linejoin="bevel" stroke-miterlimit="22.9256" d="M219.48,329.777
			c3.097,6.703,9.807,10.995,17.191,10.995"/>
		<path fill="none" stroke="#433092" stroke-width="0.25" stroke-linejoin="bevel" stroke-miterlimit="22.9256" d="M219.48,329.777
			c-1.361-2.946-2.744-5.882-4.149-8.808"/>
		<path fill="none" stroke="#433092" stroke-width="0.25" stroke-linejoin="bevel" stroke-miterlimit="22.9256" d="M215.331,320.969
			c-4.196-8.742-12.967-14.366-22.662-14.533"/>
	</g>
	<g>
		<path fill="none" stroke="#433092" stroke-width="0.25" stroke-linejoin="bevel" stroke-miterlimit="22.9256" d="M309.917,340.772
			c7.384,0,14.095-4.292,17.191-10.995"/>
		<path fill="none" stroke="#433092" stroke-width="0.25" stroke-linejoin="bevel" stroke-miterlimit="22.9256" d="M331.257,320.969
			c-1.405,2.926-2.787,5.862-4.148,8.808"/>
		<path fill="none" stroke="#433092" stroke-width="0.25" stroke-linejoin="bevel" stroke-miterlimit="22.9256" d="M353.919,306.437
			c-9.695,0.167-18.466,5.791-22.662,14.533"/>
	</g>
</g>
</svg>
